<?xml version="1.0" encoding="UTF-8"?>
<svg id="Layer_1" xmlns="http://www.w3.org/2000/svg" version="1.1" viewBox="0 0 1091.2 107.5">
  <!-- Generator: Adobe Illustrator 29.5.1, SVG Export Plug-In . SVG Version: 2.1.0 Build 141)  -->
  <defs>
    <style>
      .st0 {
        fill: #fff;
      }
    </style>
  </defs>
  <g>
    <path class="st0" d="M29.9,0c16.2,0,25.3,9.5,25.3,22.4s-5.2,15.5-12.1,17.8c8.1,2,14.7,9.4,14.7,19.7s-10.1,23.2-25.7,23.2H0V0h29.9ZM27.4,34.5c7.4,0,11.8-4.1,11.8-10.4s-4.1-10.3-12-10.3h-11.4v20.8h11.5ZM29.1,69.8c7.9,0,12.6-4.1,12.6-10.8s-4.2-11.1-12.3-11.1h-13.4v21.9h13.1Z"/>
    <g>
      <path class="st0" d="M61.8,83.2V0h15.6v83.1h-15.6Z"/>
      <path class="st0" d="M140.8,54.4c0,17.7-13,30.6-30.3,30.6s-30.3-12.9-30.3-30.6,13-30.6,30.3-30.6,30.3,12.8,30.3,30.6ZM125.2,54.4c0-10.9-7-16.4-14.7-16.4s-14.7,5.5-14.7,16.4,7,16.4,14.7,16.4,14.7-5.5,14.7-16.4Z"/>
      <path class="st0" d="M157.8,54.4c0,10.4,6.8,16.3,14.8,16.3s12-5.3,13.2-9.7l13.7,4.6c-2.6,9.6-11.6,19.5-27,19.5s-30.4-12.9-30.4-30.6,13.1-30.6,29.9-30.6,24.6,9.7,27.1,19.5l-14,4.7c-1.4-4.8-5-9.7-12.8-9.7s-14.7,5.8-14.7,16.2h0Z"/>
      <path class="st0" d="M234.5,49.8l23.6,33.4h-19.1l-15.2-22-6.4,6.8v15.2h-15.6V0h15.6v46.9l19.9-21.5h20.4l-23.1,24.3h0Z"/>
      <path class="st0" d="M304.5,25.5l12.4,37.2,10.7-37.2h15.5l-18.1,57.7h-15.6l-13.5-39.4-13.2,39.4h-15.8l-18.4-57.7h16.4l10.7,37.1,12.5-37.1h16.4,0Z"/>
      <path class="st0" d="M400.3,54.4c0,17.7-13,30.6-30.3,30.6s-30.3-12.9-30.3-30.6,13-30.6,30.3-30.6,30.3,12.8,30.3,30.6ZM384.7,54.4c0-10.9-7-16.4-14.7-16.4s-14.7,5.5-14.7,16.4,7,16.4,14.7,16.4,14.7-5.5,14.7-16.4Z"/>
      <path class="st0" d="M438.4,41c-1.8-.3-3.3-.5-4.7-.5-8,0-14.9,3.9-14.9,16.3v26.4h-15.6V25.5h15.1v8.6c3.5-7.6,11.5-9,16.4-9s2.5.1,3.6.2v15.7h0Z"/>
      <path class="st0" d="M473.7,49.8l23.6,33.4h-19.1l-15.2-22-6.5,6.8v15.2h-15.6V0h15.6v46.9l19.9-21.5h20.4l-23.1,24.3Z"/>
      <path class="st0" d="M506.5,64.2c.4,4.6,3.8,8.8,10.6,8.8s7.6-2.7,7.6-5.8-1.8-4.7-6.2-5.6l-7.6-1.8c-11.1-2.5-16.2-9.2-16.2-17.2s9.1-18.9,21.6-18.9,21.9,10.4,22.6,16.6l-13,2.9c-.5-3.4-2.9-7.7-9.5-7.7s-7.4,2.5-7.4,5.8,2.1,4.6,5.3,5.2l8.2,1.8c11.4,2.3,17.1,9.3,17.1,17.7s-7.3,19-22.4,19-23.3-11.3-24-17.8l13.4-2.9h0Z"/>
    </g>
  </g>
  <g>
    <path class="st0" d="M622.5,0l31.2,83.1h-17.2l-6.6-17.8h-34.3l-6.6,17.8h-16.9L603,0h19.5ZM600.8,50.9h23.5l-11.8-32-11.7,32Z"/>
    <path class="st0" d="M737.5,83.2l-22.1-57.7h16.8l13.7,38,13.5-38h16.3l-22,57.7h-16.2Z"/>
    <path class="st0" d="M777.9,0h16.6v15.1h-16.6V0ZM794.3,83.2h-16.2V25.5h16.2v57.7Z"/>
    <path class="st0" d="M962.2,107.5c-3.1,0-4.3-.1-6.4-.3v-13.1c1.7.1,2.8.2,4.6.2,4.3,0,6.6-1.2,8.3-5.6l2-4.9-21.9-58.5h16.8l13.8,40.1,13.4-40.1h16.3l-24.1,64.4c-3.9,10.8-9.5,17.7-22.9,17.7h0Z"/>
    <path class="st0" d="M811.5,64.2c.3,4.6,3.8,8.8,10.5,8.8s7.6-2.7,7.6-5.8-1.8-4.7-6.2-5.6l-7.6-1.8c-11.1-2.5-16.2-9.2-16.2-17.2s9.2-18.9,21.6-18.9,21.9,10.4,22.6,16.6l-13,2.9c-.5-3.4-2.9-7.7-9.5-7.7s-7.4,2.5-7.4,5.8,2.1,4.6,5.3,5.2l8.2,1.8c11.4,2.3,17.1,9.3,17.1,17.7s-7.3,19-22.4,19-23.3-11.3-24-17.8l13.4-2.9h0Z"/>
    <path class="st0" d="M878.2,85c-17.8,0-30.3-12.3-30.3-30.7s12.4-30.5,30.3-30.5,30.3,12.3,30.3,30.5-12.4,30.7-30.3,30.7ZM878.2,70.8c7.8,0,13.8-5.3,13.8-16.5s-5.9-16.4-13.8-16.4-14,5.3-14,16.4,6,16.5,14,16.5Z"/>
    <path class="st0" d="M946.6,41.2c-1.8-.3-3.3-.5-4.7-.5-8,0-14.9,3.9-14.9,16.3v26.4h-15.6V25.8h15.1v8.6c3.5-7.6,11.5-9,16.4-9s2.5.1,3.6.2v15.7h0Z"/>
    <path class="st0" d="M653.6,54.5c0-18.3,12.6-30.8,29.4-30.8s8.5-.3,14.1,2.9V0h16.2v84.9h-16.2v-2.8c-4,1.8-7,2.7-14.1,2.7-16.8,0-29.5-13-29.5-30.3h0ZM683.9,38.1c-8.5,0-13.9,6-13.9,16.4s6.2,16.1,14.5,16.1,12.3-4.7,12.6-14.1v-3.2c0-10.4-5.8-15.1-13.2-15.1h0Z"/>
  </g>
</svg>