<?xml version="1.0" encoding="UTF-8"?>
<svg id="Layer_1" xmlns="http://www.w3.org/2000/svg" viewBox="0 0 1099.06 107.69">
  <defs>
    <style>
      .cls-1 {
        fill: #fff;
      }
    </style>
  </defs>
  <g>
    <path class="cls-1" d="M29.9.73c16.18,0,25.33,9.5,25.33,22.4,0,8.56-5.16,15.48-12.08,17.83,8.09,1.99,14.66,9.38,14.66,19.7,0,13.49-10.09,23.22-25.68,23.22H0V.73h29.9ZM27.44,35.1c7.39,0,11.84-4.1,11.84-10.44s-4.1-10.32-11.96-10.32h-11.38v20.76h11.49ZM29.08,70.39c7.86,0,12.55-4.1,12.55-10.79s-4.22-11.14-12.31-11.14h-13.37v21.93h13.13Z"/>
    <g>
      <path class="cls-1" d="M61.8,83.89V.73h15.6v83.15h-15.6Z"/>
      <path class="cls-1" d="M140.84,55.04c0,17.71-13.02,30.61-30.26,30.61s-30.26-12.9-30.26-30.61,13.02-30.61,30.26-30.61,30.26,12.78,30.26,30.61ZM125.24,55.04c0-10.91-7.04-16.42-14.66-16.42s-14.66,5.51-14.66,16.42,7.04,16.42,14.66,16.42,14.66-5.51,14.66-16.42Z"/>
      <path class="cls-1" d="M157.77,55.04c0,10.44,6.8,16.3,14.78,16.3s11.96-5.28,13.25-9.73l13.72,4.57c-2.58,9.62-11.61,19.47-26.97,19.47-17,0-30.37-12.9-30.37-30.61s13.13-30.61,29.9-30.61c15.71,0,24.63,9.73,27.09,19.47l-13.96,4.69c-1.41-4.81-5.04-9.73-12.78-9.73s-14.66,5.75-14.66,16.18Z"/>
      <path class="cls-1" d="M234.46,50.46l23.57,33.42h-19.12l-15.25-22.05-6.45,6.8v15.25h-15.6V.73h15.6v46.91l19.94-21.46h20.41l-23.1,24.28Z"/>
      <path class="cls-1" d="M304.52,26.19l12.43,37.18,10.67-37.18h15.48l-18.06,57.7h-15.6l-13.49-39.4-13.25,39.4h-15.83l-18.41-57.7h16.42l10.67,37.06,12.55-37.06h16.42Z"/>
      <path class="cls-1" d="M400.31,55.04c0,17.71-13.02,30.61-30.26,30.61s-30.26-12.9-30.26-30.61,13.02-30.61,30.26-30.61,30.26,12.78,30.26,30.61ZM384.71,55.04c0-10.91-7.04-16.42-14.66-16.42s-14.66,5.51-14.66,16.42,7.04,16.42,14.66,16.42,14.66-5.51,14.66-16.42Z"/>
      <path class="cls-1" d="M438.42,41.67c-1.76-.35-3.28-.47-4.69-.47-7.97,0-14.89,3.87-14.89,16.3v26.39h-15.6V26.19h15.13v8.56c3.52-7.62,11.49-9.03,16.42-9.03,1.29,0,2.46.12,3.64.23v15.71Z"/>
      <path class="cls-1" d="M473.74,50.46l23.57,33.42h-19.12l-15.25-22.05-6.45,6.8v15.25h-15.6V.73h15.6v46.91l19.94-21.46h20.41l-23.1,24.28Z"/>
      <path class="cls-1" d="M506.46,64.89c.35,4.57,3.75,8.8,10.55,8.8,5.16,0,7.62-2.7,7.62-5.75,0-2.58-1.76-4.69-6.22-5.63l-7.62-1.76c-11.14-2.46-16.18-9.15-16.18-17.24,0-10.32,9.15-18.88,21.58-18.88,16.42,0,21.93,10.44,22.63,16.65l-13.02,2.93c-.47-3.4-2.93-7.74-9.5-7.74-4.1,0-7.39,2.46-7.39,5.75,0,2.81,2.11,4.57,5.28,5.16l8.21,1.76c11.38,2.35,17.12,9.26,17.12,17.71,0,9.38-7.27,19-22.4,19-17.36,0-23.34-11.26-24.04-17.83l13.37-2.93Z"/>
    </g>
  </g>
  <g>
    <path class="cls-1" d="M593.37,83.91h-15.03V.79h31.77c21.3.88,25.93,15.45,25.93,26.31,0,12.62-5.72,19.57-12.06,22.88l21.62,33.94h-19.45l-19.18-30.52h-13.56l-.03,30.52ZM607.2,38.91c9.89.09,13.83-4.88,13.83-11.84s-3.91-11.81-13.87-11.81l-13.77.02v23.63h13.8Z"/>
    <path class="cls-1" d="M637.29,53.85c0-15.14,10.8-29.5,29.64-29.5s27.78,12.95,27.78,28.34v4.75h-41.91c1.16,9.26,6.83,14.82,14.82,14.82,6.25,0,11.23-3.01,13.08-8.91l13.66,4.86c-4.4,11.11-14.7,17.37-26.86,17.37-17.94,0-30.22-12.85-30.22-31.72ZM653.38,46.45h25.24c-.12-6.02-3.94-11.23-11.81-11.23-6.48,0-11.46,3.82-13.43,11.23Z"/>
    <path class="cls-1" d="M909.37,41.2c-1.76-.35-3.28-.47-4.69-.47-7.97,0-14.89,3.87-14.89,16.3v26.39h-15.6V25.72h15.13v8.56c3.52-7.62,11.49-9.03,16.42-9.03,1.29,0,2.46.12,3.64.23v15.71Z"/>
    <path class="cls-1" d="M711.17,64.82c.35,4.57,3.75,8.8,10.55,8.8,5.16,0,7.62-2.7,7.62-5.75,0-2.58-1.76-4.69-6.22-5.63l-7.62-1.76c-11.14-2.46-16.18-9.15-16.18-17.24,0-10.32,9.15-18.88,21.58-18.88,16.42,0,21.93,10.44,22.63,16.65l-13.02,2.93c-.47-3.4-2.93-7.74-9.5-7.74-4.1,0-7.39,2.46-7.39,5.75,0,2.81,2.11,4.57,5.28,5.16l8.21,1.76c11.38,2.35,17.12,9.26,17.12,17.71,0,9.38-7.27,19-22.4,19-17.36,0-23.34-11.26-24.04-17.83l13.37-2.93Z"/>
    <path class="cls-1" d="M810.48,67.63c0-12.16,9.72-17.25,22-19.45l15.17-2.89v-.93c0-5.21-2.66-8.45-9.38-8.45-6.02,0-9.15,2.66-10.53,8.1l-14.76-1.02c2.78-10.3,12.04-18.64,26.51-18.64,15.4,0,24.02,9.39,24.02,19.31v24.89c0,3.24,1.39,4.28,4.98,3.82v12.16c-10.3,1.5-16.55-.58-19.22-5.67-3.94,4.28-10.07,6.71-18.06,6.71-11.92,0-20.72-7.18-20.72-17.94ZM847.64,56.63l-11.92,2.43c-5.33,1.04-9.26,2.78-9.26,7.64,0,4.17,3.12,6.6,7.99,6.6,6.83,0,13.2-3.59,13.2-10.42v-6.25Z"/>
    <path class="cls-1" d="M747.71,53.85c0-15.14,10.8-29.5,29.64-29.5s27.78,12.95,27.78,28.34v4.75h-41.91c1.16,9.26,6.83,14.82,14.82,14.82,6.25,0,11.23-3.01,13.08-8.91l13.66,4.86c-4.4,11.11-14.7,17.37-26.86,17.37-17.94,0-30.22-12.85-30.22-31.72ZM763.8,46.45h25.24c-.12-6.02-3.94-11.23-11.81-11.23-6.48,0-11.46,3.82-13.43,11.23Z"/>
    <path class="cls-1" d="M943.22,71.28c6.05-.04,10.69-3.85,12.77-9.73l13.72,4.57c-2.79,10.02-11.81,19.42-26.74,19.42-17.94,0-30.61-12.41-30.61-30.64s12.67-30.53,30.61-30.53c15.34,0,23.43,9.35,26.39,19.47l-13.96,4.69c-1.64-5.76-5.98-9.73-12.78-9.73-8.22,0-13.94,5.54-13.94,16.5s6.46,16.03,14.54,15.98Z"/>
    <path class="cls-1" d="M976.46.38h16.29v28.62c3.37-3.96,8.96-7.45,16.75-7.45,12.8,0,20.59,8.73,20.59,21.99v40.37h-16.29v-35.71c0-6.86-2.79-11.75-9.77-11.75-5.7,0-11.28,4.07-11.28,12.1v35.37h-16.29V.38Z"/>
  </g>
</svg>